<svg width="30" height="30" viewBox="0 0 30 30" fill="none" xmlns="http://www.w3.org/2000/svg">
<rect width="30" height="30" rx="6" fill="black" fill-opacity="0.2"/>
<path d="M15.6568 5.83301C16.35 5.83301 16.9777 6.21801 17.3243 6.78634C17.4929 7.06134 17.6053 7.40051 17.5772 7.75801C17.5585 8.03301 17.6428 8.30801 17.7927 8.56467C18.2705 9.34384 19.329 9.63717 20.1534 9.19717C21.0808 8.66551 22.2518 8.98634 22.7858 9.89384L23.4135 10.9755C23.9568 11.883 23.657 13.0472 22.7202 13.5697C21.924 14.0372 21.6429 15.073 22.1207 15.8613C22.2706 16.1088 22.4392 16.3197 22.7015 16.448C23.0294 16.6222 23.2823 16.8972 23.4603 17.1722C23.8069 17.7405 23.7788 18.4372 23.4416 19.0513L22.7858 20.1513C22.4392 20.738 21.7928 21.1047 21.1277 21.1047C20.7998 21.1047 20.4345 21.013 20.1347 20.8297C19.8911 20.6738 19.6101 20.6188 19.3103 20.6188C18.3829 20.6188 17.6053 21.3797 17.5772 22.2872C17.5772 23.3413 16.7154 24.1663 15.6381 24.1663H14.364C13.2773 24.1663 12.4155 23.3413 12.4155 22.2872C12.3968 21.3797 11.6192 20.6188 10.6918 20.6188C10.3827 20.6188 10.1016 20.6738 9.86742 20.8297C9.56764 21.013 9.19293 21.1047 8.87442 21.1047C8.19992 21.1047 7.55354 20.738 7.20692 20.1513L6.56053 19.0513C6.21392 18.4555 6.19518 17.7405 6.5418 17.1722C6.69168 16.8972 6.97272 16.6222 7.29123 16.448C7.55354 16.3197 7.72216 16.1088 7.88141 15.8613C8.34981 15.073 8.06877 14.0372 7.2725 13.5697C6.34507 13.0472 6.0453 11.883 6.57927 10.9755L7.20692 9.89384C7.75026 8.98634 8.91189 8.66551 9.84868 9.19717C10.6637 9.63717 11.7223 9.34384 12.2 8.56467C12.3499 8.30801 12.4342 8.03301 12.4155 7.75801C12.3968 7.40051 12.4998 7.06134 12.6778 6.78634C13.0244 6.21801 13.6521 5.85134 14.3359 5.83301H15.6568ZM15.0104 12.4147C13.5397 12.4147 12.3499 13.5697 12.3499 15.0088C12.3499 16.448 13.5397 17.5938 15.0104 17.5938C16.4812 17.5938 17.6428 16.448 17.6428 15.0088C17.6428 13.5697 16.4812 12.4147 15.0104 12.4147Z" fill="#0A0F1F"/>
</svg>
