<svg width="30" height="31" viewBox="0 0 30 31" fill="none" xmlns="http://www.w3.org/2000/svg">
<rect y="0.5" width="30" height="30" rx="8" fill="#47F811" fill-opacity="0.1"/>
<path d="M18.1432 8C20.46 8 21.75 9.335 21.75 11.6225V19.37C21.75 21.695 20.46 23 18.1432 23H11.8575C9.5775 23 8.25 21.695 8.25 19.37V11.6225C8.25 9.335 9.5775 8 11.8575 8H18.1432ZM12.06 18.305C11.835 18.2825 11.6175 18.3875 11.4975 18.5825C11.3775 18.77 11.3775 19.0175 11.4975 19.2125C11.6175 19.4 11.835 19.5125 12.06 19.4825H17.94C18.2393 19.4525 18.465 19.1967 18.465 18.8975C18.465 18.59 18.2393 18.335 17.94 18.305H12.06ZM17.94 14.8842H12.06C11.7367 14.8842 11.475 15.1475 11.475 15.47C11.475 15.7925 11.7367 16.055 12.06 16.055H17.94C18.2625 16.055 18.525 15.7925 18.525 15.47C18.525 15.1475 18.2625 14.8842 17.94 14.8842ZM14.3018 11.4875H12.06V11.495C11.7367 11.495 11.475 11.7575 11.475 12.08C11.475 12.4025 11.7367 12.665 12.06 12.665H14.3018C14.625 12.665 14.8875 12.4025 14.8875 12.0717C14.8875 11.75 14.625 11.4875 14.3018 11.4875Z" fill="#47F811"/>
</svg>
