<svg width="30" height="31" viewBox="0 0 30 31" fill="none" xmlns="http://www.w3.org/2000/svg">
<rect y="0.5" width="30" height="30" rx="8" fill="#41EDBA" fill-opacity="0.1"/>
<path d="M17.5875 9.33522C17.5575 9.52272 17.5425 9.71022 17.5425 9.89772C17.5425 11.5852 18.9075 12.9495 20.5875 12.9495C20.775 12.9495 20.955 12.9277 21.1425 12.8977V18.9495C21.1425 21.4927 19.6425 23.0002 17.0925 23.0002H11.5507C9 23.0002 7.5 21.4927 7.5 18.9495V13.4002C7.5 10.8502 9 9.33522 11.5507 9.33522H17.5875ZM17.7382 13.8952C17.535 13.8727 17.3333 13.9627 17.2125 14.1277L15.3983 16.4752L13.32 14.8402C13.1925 14.7427 13.0425 14.7045 12.8925 14.7202C12.7432 14.7427 12.6083 14.8245 12.5175 14.9445L10.2982 17.8327L10.2525 17.9002C10.125 18.1395 10.185 18.447 10.41 18.6127C10.515 18.6802 10.6275 18.7252 10.755 18.7252C10.9283 18.7327 11.0925 18.642 11.1975 18.5002L13.08 16.077L15.2175 17.6827L15.285 17.727C15.525 17.8545 15.825 17.7952 15.9975 17.5695L18.165 14.7727L18.135 14.7877C18.255 14.6227 18.2775 14.4127 18.195 14.2252C18.1132 14.0377 17.9325 13.9102 17.7382 13.8952ZM20.6926 8C21.6901 8 22.5001 8.81 22.5001 9.8075C22.5001 10.805 21.6901 11.615 20.6926 11.615C19.6951 11.615 18.8851 10.805 18.8851 9.8075C18.8851 8.81 19.6951 8 20.6926 8Z" fill="#41EDBA"/>
</svg>
