<svg width="30" height="31" viewBox="0 0 30 31" fill="none" xmlns="http://www.w3.org/2000/svg">
<rect y="0.5" width="30" height="30" rx="8" fill="#11BBF8" fill-opacity="0.1"/>
<path d="M12.4929 23.1767V20.5012C12.4929 19.8182 13.0506 19.2645 13.7386 19.2645H16.2535C16.5839 19.2645 16.9008 19.3948 17.1344 19.6267C17.368 19.8586 17.4992 20.1732 17.4992 20.5012V23.1767C17.4971 23.4606 17.6093 23.7336 17.8108 23.9352C18.0123 24.1367 18.2865 24.25 18.5726 24.25H20.2883C21.0897 24.2521 21.8589 23.9375 22.4263 23.3757C22.9936 22.8139 23.3125 22.0511 23.3125 21.2556V13.6335C23.3125 12.9909 23.0256 12.3814 22.529 11.9691L16.6923 7.34139C15.677 6.52999 14.2222 6.55619 13.2372 7.40361L7.53364 11.9691C7.01365 12.3692 6.70286 12.9806 6.6875 13.6335V21.2478C6.6875 22.9059 8.04146 24.25 9.71165 24.25H11.3883C11.9823 24.25 12.4651 23.7742 12.4694 23.1845L12.4929 23.1767Z" fill="#C211F8"/>
</svg>
