<svg width="12" height="11" viewBox="0 0 12 11" fill="none" xmlns="http://www.w3.org/2000/svg">
<path d="M6 9.625C8.27817 9.625 10.125 7.77817 10.125 5.5C10.125 3.22183 8.27817 1.375 6 1.375C3.72183 1.375 1.875 3.22183 1.875 5.5C1.875 7.77817 3.72183 9.625 6 9.625Z" stroke="white" stroke-linecap="round" stroke-linejoin="round"/>
<path d="M7.3748 6.53128C7.15832 6.8198 6.85655 7.0329 6.51224 7.1404C6.16792 7.2479 5.79851 7.24435 5.45633 7.13025C5.11414 7.01616 4.81653 6.79729 4.60563 6.50466C4.39474 6.21204 4.28125 5.86047 4.28125 5.49977C4.28125 5.13906 4.39473 4.7875 4.60562 4.49486C4.81651 4.20223 5.11412 3.98337 5.45631 3.86926C5.79849 3.75516 6.1679 3.75161 6.51222 3.8591C6.85653 3.9666 7.1583 4.1797 7.37478 4.46822" stroke="white" stroke-linecap="round" stroke-linejoin="round"/>
</svg>
