<svg width="838" height="639" viewBox="0 0 838 639" fill="none" xmlns="http://www.w3.org/2000/svg">
<path opacity="0.75" d="M840.705 437.079C840.705 644.379 931.31 633.889 683.072 633.889C434.835 633.889 258 644.379 258 460.557C258 206.475 508.358 1.99951 730.899 1.99951C1028.11 1.99951 840.705 182.998 840.705 437.079Z" fill="#F2FFAB"/>
<path opacity="0.95" d="M831.5 642C831.5 642 691.327 642 437 642C182.673 642 1.5 642 1.5 642C1.5 387.673 206.173 220 460.5 220C714.827 220 831.5 387.673 831.5 642Z" fill="#8E5D95"/>
<path d="M841.096 667.999C841.344 647.189 841.735 634.337 701.096 634.337C446.768 634.337 258 647.189 258 647.189C258 392.861 446.859 230.071 701 220.351C1128.5 204 841.096 413.672 841.096 667.999Z" fill="#011627"/>
</svg>
