<svg width="25" height="24" viewBox="0 0 25 24" fill="none" xmlns="http://www.w3.org/2000/svg">
<rect x="0.5" width="24" height="24" rx="12" fill="#0A66C2"/>
<g clip-path="url(#clip0_35_3887)">
<path d="M5.5 6.86777C5.5 6.41732 5.65766 6.04569 5.97297 5.75291C6.28828 5.46011 6.6982 5.31372 7.2027 5.31372C7.6982 5.31372 8.09909 5.45786 8.40541 5.74615C8.72072 6.04345 8.87838 6.43083 8.87838 6.90832C8.87838 7.34075 8.72523 7.7011 8.41892 7.9894C8.10361 8.28669 7.68919 8.43534 7.17568 8.43534H7.16216C6.66666 8.43534 6.26577 8.28669 5.95946 7.9894C5.65315 7.6921 5.5 7.31822 5.5 6.86777ZM5.67568 18.6921V9.66507H8.67568V18.6921H5.67568ZM10.3378 18.6921H13.3378V13.6516C13.3378 13.3362 13.3739 13.093 13.4459 12.9218C13.5721 12.6155 13.7635 12.3565 14.0203 12.1448C14.277 11.9331 14.5991 11.8272 14.9865 11.8272C15.9955 11.8272 16.5 12.5074 16.5 13.8678V18.6921H19.5V13.5164C19.5 12.1831 19.1847 11.1718 18.5541 10.4826C17.9234 9.79345 17.0901 9.44886 16.0541 9.44886C14.8919 9.44886 13.9865 9.94886 13.3378 10.9489V10.9759H13.3243L13.3378 10.9489V9.66507H10.3378C10.3559 9.95336 10.3649 10.8497 10.3649 12.3543C10.3649 13.8588 10.3559 15.9714 10.3378 18.6921Z" fill="white"/>
</g>
<defs>
<clipPath id="clip0_35_3887">
<rect x="5.5" y="5" width="14" height="14" fill="white"/>
</clipPath>
</defs>
</svg>
