<svg width="25" height="24" viewBox="0 0 25 24" fill="none" xmlns="http://www.w3.org/2000/svg">
<path d="M24.433 7.05204C24.3754 5.77422 24.169 4.89992 23.8761 4.13611C23.5689 3.34828 23.1608 2.67574 22.4934 2.01281C21.8261 1.34988 21.1588 0.931946 20.3714 0.629304C19.6081 0.331465 18.7343 0.129704 17.4572 0.0720576C16.1754 0.0144115 15.7673 0 12.5122 0C9.2524 0 8.84431 0.0144115 7.56726 0.0720576C6.2902 0.129704 5.41643 0.336269 4.65308 0.629304C3.86092 0.93675 3.18878 1.34508 2.52625 2.01281C1.86372 2.68054 1.44603 3.34828 1.14357 4.13611C0.850716 4.89992 0.644274 5.77422 0.586663 7.05204C0.529051 8.33467 0.514648 8.743 0.514648 12C0.514648 15.2618 0.529051 15.6701 0.586663 16.948C0.644274 18.2258 0.850716 19.1001 1.14357 19.8639C1.45084 20.6517 1.85892 21.3243 2.52625 21.9872C3.18878 22.6549 3.86092 23.0681 4.64827 23.3707C5.41163 23.6685 6.2854 23.8703 7.56246 23.9279C8.84431 23.9856 9.2524 24 12.5074 24C15.7673 24 16.1754 23.9856 17.4524 23.9279C18.7295 23.8703 19.6033 23.6637 20.3666 23.3707C21.154 23.0633 21.8261 22.6549 22.4886 21.9872C23.1512 21.3195 23.5689 20.6517 23.8713 19.8639C24.169 19.1001 24.3706 18.2258 24.4282 16.948C24.4858 15.6653 24.5002 15.257 24.5002 12C24.5002 8.743 24.4906 8.32986 24.433 7.05204ZM22.2774 16.8519C22.2246 18.024 22.0278 18.6629 21.8645 19.0809C21.6485 19.6381 21.3844 20.0416 20.9619 20.4644C20.5395 20.8871 20.141 21.1417 19.5793 21.3675C19.1568 21.5308 18.5182 21.7278 17.3516 21.7806C16.089 21.8383 15.7097 21.8527 12.5026 21.8527C9.2956 21.8527 8.91633 21.8383 7.65368 21.7806C6.48224 21.7278 5.84371 21.5308 5.42603 21.3675C4.86912 21.1513 4.46584 20.8871 4.04335 20.4644C3.62087 20.0416 3.36642 19.6429 3.14077 19.0809C2.97754 18.6581 2.7807 18.0192 2.72789 16.8519C2.67028 15.5885 2.65588 15.209 2.65588 12C2.65588 8.79103 2.67028 8.41153 2.72789 7.14812C2.7807 5.97598 2.97754 5.33707 3.14077 4.91914C3.35682 4.36189 3.62087 3.95837 4.04335 3.53563C4.46584 3.11289 4.86432 2.85829 5.42603 2.63251C5.84852 2.46918 6.48704 2.27222 7.65368 2.21938C8.91633 2.16173 9.2956 2.14732 12.5026 2.14732C15.7097 2.14732 16.089 2.16173 17.3516 2.21938C18.5231 2.27222 19.1616 2.46918 19.5793 2.63251C20.1362 2.84868 20.5395 3.11289 20.9619 3.53563C21.3844 3.95837 21.6389 4.35709 21.8645 4.91914C22.0278 5.34187 22.2246 5.98079 22.2774 7.14812C22.335 8.41153 22.3494 8.79103 22.3494 12C22.3494 15.209 22.3302 15.5885 22.2774 16.8519Z" fill="url(#paint0_linear_35_3886)"/>
<path d="M12.5023 5.83179C9.09364 5.83179 6.33789 8.594 6.33789 11.9999C6.33789 15.4107 9.09844 18.1681 12.5023 18.1681C15.9062 18.1681 18.6668 15.401 18.6668 11.9999C18.6668 8.58919 15.911 5.83179 12.5023 5.83179ZM12.5023 16.0015C10.2939 16.0015 8.50312 14.2097 8.50312 11.9999C8.50312 9.79015 10.2939 7.99832 12.5023 7.99832C14.7108 7.99832 16.5015 9.79015 16.5015 11.9999C16.5015 14.2097 14.7108 16.0015 12.5023 16.0015Z" fill="url(#paint1_linear_35_3886)"/>
<path d="M18.9071 7.03294C19.7025 7.03294 20.3474 6.38771 20.3474 5.59179C20.3474 4.79586 19.7025 4.15063 18.9071 4.15063C18.1116 4.15063 17.4668 4.79586 17.4668 5.59179C17.4668 6.38771 18.1116 7.03294 18.9071 7.03294Z" fill="#BC30A0"/>
<path d="M0.5 12C0.5 15.2618 0.514403 15.6701 0.572014 16.948C0.629626 18.2258 0.836067 19.1001 1.12893 19.8639C1.43619 20.6517 1.84427 21.3243 2.5116 21.9872C3.17413 22.6501 3.84627 23.0681 4.63363 23.3707C5.39698 23.6685 6.27075 23.8703 7.54781 23.9279C8.82967 23.9856 9.23775 24 12.4928 24C15.7527 24 16.1607 23.9856 17.4378 23.9279C18.7148 23.8703 19.5886 23.6637 20.352 23.3707C21.1393 23.0633 21.8115 22.6549 22.474 21.9872C23.1365 21.3243 23.5542 20.6517 23.8567 19.8639C24.1543 19.1001 24.356 18.2258 24.4136 16.948C24.4712 15.6653 24.4856 15.257 24.4856 12C24.4856 8.73819 24.4712 8.32986 24.4136 7.05204C24.356 5.77422 24.1495 4.89992 23.8567 4.13611C23.5494 3.34828 23.1413 2.67574 22.474 2.01281C21.8163 1.34508 21.1441 0.931946 20.3568 0.629304C19.5934 0.331465 18.7196 0.129704 17.4426 0.0720576C16.1607 0.0144115 15.7527 0 12.4976 0C9.23775 0 8.82967 0.0144115 7.55261 0.0720576C6.27555 0.129704 5.40178 0.336269 4.63843 0.629304C3.85107 0.93675 3.17894 1.34508 2.5164 2.01281C1.85387 2.68054 1.43619 3.34828 1.13373 4.13611C0.836067 4.89992 0.629626 5.77422 0.572014 7.05204C0.514403 8.32986 0.5 8.73819 0.5 12ZM2.66523 12C2.66523 8.79584 2.67964 8.41153 2.73725 7.14812C2.79006 5.97598 2.9869 5.33707 3.15013 4.91914C3.36617 4.36189 3.63023 3.95837 4.05271 3.53563C4.47519 3.11289 4.87367 2.85829 5.43539 2.63251C5.85787 2.46918 6.4964 2.27222 7.66303 2.21938C8.92568 2.16173 9.30496 2.14732 12.512 2.14732C15.719 2.14732 16.0983 2.16173 17.361 2.21938C18.5324 2.27222 19.1709 2.46918 19.5886 2.63251C20.1455 2.84868 20.5488 3.11289 20.9713 3.53563C21.3938 3.95837 21.6482 4.35709 21.8739 4.91914C22.0371 5.34187 22.2339 5.98079 22.2868 7.14812C22.3444 8.41153 22.3588 8.79103 22.3588 12C22.3588 15.209 22.3444 15.5885 22.2868 16.8519C22.2339 18.024 22.0371 18.6629 21.8739 19.0809C21.6578 19.6381 21.3938 20.0416 20.9713 20.4644C20.5488 20.8871 20.1503 21.1417 19.5886 21.3675C19.1661 21.5308 18.5276 21.7278 17.361 21.7806C16.0983 21.8383 15.719 21.8527 12.512 21.8527C9.30496 21.8527 8.92568 21.8383 7.66303 21.7806C6.4916 21.7278 5.85307 21.5308 5.43539 21.3675C4.87848 21.1513 4.47519 20.8871 4.05271 20.4644C3.63023 20.0416 3.37578 19.6429 3.15013 19.0809C2.9869 18.6581 2.79006 18.0192 2.73725 16.8519C2.67483 15.5885 2.66523 15.2042 2.66523 12Z" fill="url(#paint2_linear_35_3886)"/>
<defs>
<linearGradient id="paint0_linear_35_3886" x1="20.7957" y1="1.8352" x2="3.43328" y2="23.1076" gradientUnits="userSpaceOnUse">
<stop stop-color="#AE3DAE"/>
<stop offset="0.0468721" stop-color="#B23BA6"/>
<stop offset="0.1216" stop-color="#BD368E"/>
<stop offset="0.2148" stop-color="#CE2E69"/>
<stop offset="0.3216" stop-color="#E62335"/>
<stop offset="0.418" stop-color="#FF1800"/>
</linearGradient>
<linearGradient id="paint1_linear_35_3886" x1="15.4422" y1="7.05278" x2="9.13481" y2="17.6513" gradientUnits="userSpaceOnUse">
<stop stop-color="#E12F6A"/>
<stop offset="0.1705" stop-color="#EA3751"/>
<stop offset="0.3563" stop-color="#F13D3E"/>
<stop offset="0.5467" stop-color="#F64133"/>
<stop offset="0.7469" stop-color="#F7422F"/>
<stop offset="0.7946" stop-color="#F74C2F"/>
<stop offset="0.8743" stop-color="#F7652F"/>
<stop offset="0.9757" stop-color="#F78F2E"/>
<stop offset="1" stop-color="#F79A2E"/>
</linearGradient>
<linearGradient id="paint2_linear_35_3886" x1="17.9381" y1="-0.988031" x2="7.31389" y2="24.3363" gradientUnits="userSpaceOnUse">
<stop offset="0.2341" stop-color="#9E35A5" stop-opacity="0"/>
<stop offset="0.4512" stop-color="#D42F7F" stop-opacity="0.5"/>
<stop offset="0.7524" stop-color="#F7772E"/>
<stop offset="0.9624" stop-color="#FEF780"/>
</linearGradient>
</defs>
</svg>
