<svg width="80" height="80" viewBox="0 0 80 80" fill="none" xmlns="http://www.w3.org/2000/svg">
<path d="M80 40C80 43.2544 79.5555 46.4054 78.726 49.3936C77.9426 52.2102 76.816 54.8837 75.3945 57.3658C75.0226 58.0149 74.631 58.6508 74.2195 59.2735C72.8992 61.2715 71.3787 63.1265 69.6866 64.8098L69.6822 64.8142C68.8768 65.6152 68.0341 66.3765 67.1561 67.0961C66.2253 67.8574 65.2549 68.5725 64.2471 69.2371C58.9573 72.7292 52.6619 74.8196 45.8868 74.9868C45.834 74.9912 45.779 74.9912 45.7239 74.9912H45.7217C45.6689 74.9934 45.6139 74.9956 45.5589 74.9934C45.3741 74.9978 45.187 75 45 75C44.813 75 44.6215 74.9978 44.4345 74.9956H44.3883C44.1836 74.9912 43.9812 74.9868 43.7766 74.978C36.8496 74.7403 30.4354 72.4915 25.0971 68.7926C25.0861 68.786 25.0751 68.7772 25.0641 68.7706C24.8023 68.588 24.5404 68.4031 24.283 68.2117C23.1872 67.4063 22.1398 66.5372 21.1452 65.6108C21.1298 65.5954 21.1144 65.5822 21.099 65.5668C19.09 63.6898 17.3032 61.5774 15.7805 59.2757C15.6793 59.1217 15.5803 58.9699 15.4813 58.8137C14.0224 56.5296 12.8231 54.0651 11.921 51.462C10.6755 47.8709 10 44.0158 10 40C10 20.6714 25.6714 5 45 5C64.3286 5 80 20.6714 80 40Z" fill="#F4F3FF"/>
<path d="M67.5316 24.1789C67.1751 23.653 66.7967 23.1579 66.438 22.7135C64.0153 19.7033 61.3792 16.8493 58.5209 14.332C59.4648 15.1638 62.442 22.1105 62.7237 24.1525C63.1088 26.9405 48.5089 31.0795 48.2471 32.4746C50.5311 33.5836 52.5423 35.4539 53.9484 37.7204C54.3973 38.4443 54.7867 39.2079 55.1014 40.0022C58.8465 36.8534 62.7765 33.9532 66.8693 31.3171C68.26 30.4216 69.4042 29.57 69.1005 27.66C68.9091 26.4674 68.2688 25.2594 67.536 24.1811L67.5316 24.1789Z" fill="#F85A93"/>
<path d="M24.2334 24.1789C24.5899 23.653 24.9683 23.1579 25.327 22.7135C27.7497 19.7033 30.3858 16.8493 33.2441 14.332C32.3002 15.1638 29.323 22.1105 29.0413 24.1525C28.6562 26.9405 43.2561 31.0795 43.5179 32.4746C41.2339 33.5836 39.2227 35.4539 37.8166 37.7204C37.3677 38.4443 36.9783 39.2079 36.6636 40.0022C32.9185 36.8534 28.9885 33.9532 24.8957 31.3171C23.505 30.4216 22.3608 29.57 22.6645 27.66C22.8559 26.4674 23.4962 25.2594 24.229 24.1811L24.2334 24.1789Z" fill="#EF3885"/>
<path d="M78.7239 49.3935C77.9406 52.2101 76.814 54.8836 75.3925 57.3657C75.0206 58.0148 74.629 58.6507 74.2175 59.2735C71.3987 60.0722 69.0817 63.2364 67.1541 67.096C66.2233 67.8573 65.2529 68.5725 64.2451 69.237C58.9553 72.7291 52.6599 74.8195 45.8848 74.9867L48.0038 32.0652C48.5693 31.7065 49.1744 31.3874 49.8103 31.1014C54.4158 29.033 60.6694 28.8261 65.451 29.9748C64.2297 30.2828 61.6288 31.3016 60.7244 32.7869C71.4757 32.9453 77.2321 40.385 79.4831 44.9817C78.1782 44.8144 76.8734 44.6494 75.5707 44.4822C76.3915 45.1863 77.5709 46.7266 78.7239 49.3935Z" fill="#FB8AB3"/>
<path d="M43.4398 32.0652L45.5588 74.9933C45.374 74.9977 45.187 74.9999 44.9999 74.9999C44.8129 74.9999 44.6215 74.9977 44.4344 74.9955H44.3882C44.1836 74.9911 43.9811 74.9867 43.7765 74.9779C36.8495 74.7403 30.4353 72.4914 25.0971 68.7925C22.8548 63.8349 20.0471 59.5683 16.4648 59.1172C16.2447 59.1502 16.0159 59.2052 15.7804 59.2757C15.6792 59.1216 15.5802 58.9698 15.4812 58.8136C14.0223 56.5295 12.8231 54.065 11.9209 51.4619C13.2984 47.499 14.8629 45.3514 15.8751 44.4822C14.5702 44.6494 13.2676 44.8144 11.9627 44.9817C14.2137 40.385 19.9679 32.9453 30.7214 32.7869C29.817 31.3016 27.2161 30.2828 25.9926 29.9748C30.7764 28.8261 37.03 29.033 41.6333 31.1014C42.2692 31.3874 42.8743 31.7065 43.4398 32.0652Z" fill="#DC2567"/>
<path d="M45.7229 32.3185V74.9914C45.6701 74.9936 45.6151 74.9958 45.5601 74.9936C45.3752 74.998 45.1882 75.0002 45.0012 75.0002C44.8141 75.0002 44.6227 74.998 44.4356 74.9958H44.3894C44.1848 74.9914 43.9824 74.987 43.7777 74.9782C36.8508 74.7405 30.4365 72.4917 25.0983 68.7928C25.0873 68.7862 25.0763 68.7774 25.0653 68.7708C24.8034 68.5881 24.5416 68.4033 24.2841 68.2119C23.1883 67.4065 22.1409 66.5373 21.1463 65.611C21.4148 65.2501 21.6612 64.9398 21.8703 64.6846L21.1001 65.5669C19.0911 63.69 17.3044 61.5776 15.7817 59.2759C15.6805 59.1219 15.5814 58.9701 15.4824 58.8138C18.4948 50.6106 23.7582 46.3594 23.9211 46.2274L17.7423 49.451C22.8869 38.8956 32.4323 36.134 32.4323 36.134L25.8684 36.024C32.2409 32.3317 40.2262 32.4417 40.2262 32.4417L35.5767 30.5273C38.0896 30.5758 40.0942 30.8134 41.6345 31.1017C44.242 31.5879 45.5293 32.2195 45.7229 32.3185Z" fill="#EF387A"/>
<path d="M75.3952 57.366C75.0233 58.0151 74.6316 58.651 74.2201 59.2737C72.8999 61.2717 71.3794 63.1267 69.6873 64.81L69.5772 64.6846C69.6124 64.7264 69.6455 64.7682 69.6829 64.8144C68.8775 65.6154 68.0347 66.3767 67.1568 67.0963C66.226 67.8576 65.2556 68.5727 64.2478 69.2373C58.958 72.7293 52.6626 74.8197 45.8874 74.987C45.8346 74.9914 45.7796 74.9914 45.7246 74.9914V32.3185C45.9182 32.2195 47.2055 31.5879 49.813 31.1017C51.3533 30.8134 53.3579 30.5758 55.8708 30.5273L51.2213 32.4417C51.2213 32.4417 59.2088 32.3317 65.5813 36.024L59.0174 36.134C59.0174 36.134 68.5628 38.8956 73.7052 49.451L67.5286 46.2274C67.6717 46.344 72.3322 50.1023 75.3952 57.366Z" fill="#F85A93"/>
<path d="M45.7198 65.2653C52.885 65.2653 58.6935 59.4568 58.6935 52.2916C58.6935 45.1264 52.885 39.3179 45.7198 39.3179C38.5546 39.3179 32.7461 45.1264 32.7461 52.2916C32.7461 59.4568 38.5546 65.2653 45.7198 65.2653Z" fill="white"/>
<path d="M45.722 60.3146C50.1528 60.3146 53.7447 56.7226 53.7447 52.2918C53.7447 47.861 50.1528 44.269 45.722 44.269C41.2911 44.269 37.6992 47.861 37.6992 52.2918C37.6992 56.7226 41.2911 60.3146 45.722 60.3146Z" fill="#FEB173"/>
<path d="M45.7215 56.7389C48.1775 56.7389 50.1685 54.7478 50.1685 52.2918C50.1685 49.8357 48.1775 47.8447 45.7215 47.8447C43.2654 47.8447 41.2744 49.8357 41.2744 52.2918C41.2744 54.7478 43.2654 56.7389 45.7215 56.7389Z" fill="#263238"/>
<path d="M54.9781 42.5769C49.367 37.4565 40.6687 37.8548 35.5505 43.4637C33.4799 45.7324 32.3114 48.5071 32.0254 51.3434C42.1364 48.1858 51.5762 49.5237 59.4185 51.7285C59.1699 48.3443 57.6824 45.0436 54.9781 42.5769Z" fill="#DC2567"/>
<path d="M52.5 52C54 53 57.2533 53.1848 58 47.5" stroke="#363636" stroke-linecap="round"/>
<path d="M28 43.522C31.5 44 34.2533 45.6848 35 40" stroke="#363636" stroke-linecap="round"/>
<path d="M54 52.522C56.0222 53.3833 60.7533 52.6848 61.5 47" stroke="#363636" stroke-linecap="round"/>
</svg>
