<svg width="25" height="24" viewBox="0 0 25 24" fill="none" xmlns="http://www.w3.org/2000/svg">
<path d="M21.5566 7.18066C21.5659 7.39186 21.5659 7.59346 21.5659 7.80466C21.5752 14.2079 16.8707 21.5999 8.26744 21.5999C5.72999 21.5999 3.23885 20.8415 1.09961 19.4207C1.47004 19.4687 1.84047 19.4879 2.2109 19.4879C4.31309 19.4879 6.35972 18.7583 8.0174 17.4047C6.01707 17.3663 4.25753 16.0127 3.64632 14.0351C4.35014 14.1791 5.07248 14.1503 5.75777 13.9487C3.58149 13.5071 2.01642 11.5199 2.00716 9.20626C2.00716 9.18706 2.00716 9.16786 2.00716 9.14866C2.65542 9.52306 3.38702 9.73426 4.12788 9.75346C2.08125 8.33266 1.44226 5.50065 2.6832 3.28304C5.06322 6.31665 8.56378 8.15026 12.3237 8.35186C11.944 6.67185 12.4626 4.90545 13.6757 3.71505C15.5557 1.88144 18.5191 1.97744 20.2972 3.92625C21.3436 3.71505 22.3531 3.31184 23.2699 2.74544C22.918 3.86865 22.1864 4.81905 21.214 5.42385C22.1401 5.30865 23.0476 5.04945 23.8996 4.66545C23.2699 5.64465 22.4734 6.48945 21.5566 7.18066Z" fill="#1D9BF0"/>
</svg>
