<svg width="87" height="25" viewBox="0 0 87 25" fill="none" xmlns="http://www.w3.org/2000/svg">
<g opacity="0.2">
<path d="M25 12.3938C25 12.659 25.1054 12.9134 25.2929 13.1009C25.4804 13.2885 25.7348 13.3938 26 13.3938C26.2652 13.3938 26.5196 13.2885 26.7071 13.1009C26.8946 12.9134 27 12.659 27 12.3938C27 12.1286 26.8946 11.8743 26.7071 11.6867C26.5196 11.4992 26.2652 11.3938 26 11.3938C25.7348 11.3938 25.4804 11.4992 25.2929 11.6867C25.1054 11.8743 25 12.1286 25 12.3938ZM32 12.3938C32 12.659 32.1054 12.9134 32.2929 13.1009C32.4804 13.2885 32.7348 13.3938 33 13.3938C33.2652 13.3938 33.5196 13.2885 33.7071 13.1009C33.8946 12.9134 34 12.659 34 12.3938C34 12.1286 33.8946 11.8743 33.7071 11.6867C33.5196 11.4992 33.2652 11.3938 33 11.3938C32.7348 11.3938 32.4804 11.4992 32.2929 11.6867C32.1054 11.8743 32 12.1286 32 12.3938ZM39 12.3938C39 12.659 39.1054 12.9134 39.2929 13.1009C39.4804 13.2885 39.7348 13.3938 40 13.3938C40.2652 13.3938 40.5196 13.2885 40.7071 13.1009C40.8946 12.9134 41 12.659 41 12.3938C41 12.1286 40.8946 11.8743 40.7071 11.6867C40.5196 11.4992 40.2652 11.3938 40 11.3938C39.7348 11.3938 39.4804 11.4992 39.2929 11.6867C39.1054 11.8743 39 12.1286 39 12.3938Z" stroke="black" stroke-width="2" stroke-linecap="round" stroke-linejoin="round"/>
</g>
<path d="M46 12.3938C46 12.659 46.1054 12.9134 46.2929 13.1009C46.4804 13.2885 46.7348 13.3938 47 13.3938C47.2652 13.3938 47.5196 13.2885 47.7071 13.1009C47.8946 12.9134 48 12.659 48 12.3938C48 12.1286 47.8946 11.8743 47.7071 11.6867C47.5196 11.4992 47.2652 11.3938 47 11.3938C46.7348 11.3938 46.4804 11.4992 46.2929 11.6867C46.1054 11.8743 46 12.1286 46 12.3938ZM53 12.3938C53 12.659 53.1054 12.9134 53.2929 13.1009C53.4804 13.2885 53.7348 13.3938 54 13.3938C54.2652 13.3938 54.5196 13.2885 54.7071 13.1009C54.8946 12.9134 55 12.659 55 12.3938C55 12.1286 54.8946 11.8743 54.7071 11.6867C54.5196 11.4992 54.2652 11.3938 54 11.3938C53.7348 11.3938 53.4804 11.4992 53.2929 11.6867C53.1054 11.8743 53 12.1286 53 12.3938ZM60 12.3938C60 12.659 60.1054 12.9134 60.2929 13.1009C60.4804 13.2885 60.7348 13.3938 61 13.3938C61.2652 13.3938 61.5196 13.2885 61.7071 13.1009C61.8946 12.9134 62 12.659 62 12.3938C62 12.1286 61.8946 11.8743 61.7071 11.6867C61.5196 11.4992 61.2652 11.3938 61 11.3938C60.7348 11.3938 60.4804 11.4992 60.2929 11.6867C60.1054 11.8743 60 12.1286 60 12.3938Z" stroke="black" stroke-opacity="0.2" stroke-width="2" stroke-linecap="round" stroke-linejoin="round"/>
<path d="M4 12.3938C4 12.659 4.10536 12.9134 4.29289 13.1009C4.48043 13.2885 4.73478 13.3938 5 13.3938C5.26522 13.3938 5.51957 13.2885 5.70711 13.1009C5.89464 12.9134 6 12.659 6 12.3938C6 12.1286 5.89464 11.8743 5.70711 11.6867C5.51957 11.4992 5.26522 11.3938 5 11.3938C4.73478 11.3938 4.48043 11.4992 4.29289 11.6867C4.10536 11.8743 4 12.1286 4 12.3938ZM11 12.3938C11 12.659 11.1054 12.9134 11.2929 13.1009C11.4804 13.2885 11.7348 13.3938 12 13.3938C12.2652 13.3938 12.5196 13.2885 12.7071 13.1009C12.8946 12.9134 13 12.659 13 12.3938C13 12.1286 12.8946 11.8743 12.7071 11.6867C12.5196 11.4992 12.2652 11.3938 12 11.3938C11.7348 11.3938 11.4804 11.4992 11.2929 11.6867C11.1054 11.8743 11 12.1286 11 12.3938ZM18 12.3938C18 12.659 18.1054 12.9134 18.2929 13.1009C18.4804 13.2885 18.7348 13.3938 19 13.3938C19.2652 13.3938 19.5196 13.2885 19.7071 13.1009C19.8946 12.9134 20 12.659 20 12.3938C20 12.1286 19.8946 11.8743 19.7071 11.6867C19.5196 11.4992 19.2652 11.3938 19 11.3938C18.7348 11.3938 18.4804 11.4992 18.2929 11.6867C18.1054 11.8743 18 12.1286 18 12.3938Z" stroke="black" stroke-opacity="0.2" stroke-width="2" stroke-linecap="round" stroke-linejoin="round"/>
<path d="M67 12.3938C67 12.659 67.1054 12.9134 67.2929 13.1009C67.4804 13.2885 67.7348 13.3938 68 13.3938C68.2652 13.3938 68.5196 13.2885 68.7071 13.1009C68.8946 12.9134 69 12.659 69 12.3938C69 12.1286 68.8946 11.8743 68.7071 11.6867C68.5196 11.4992 68.2652 11.3938 68 11.3938C67.7348 11.3938 67.4804 11.4992 67.2929 11.6867C67.1054 11.8743 67 12.1286 67 12.3938ZM74 12.3938C74 12.659 74.1054 12.9134 74.2929 13.1009C74.4804 13.2885 74.7348 13.3938 75 13.3938C75.2652 13.3938 75.5196 13.2885 75.7071 13.1009C75.8946 12.9134 76 12.659 76 12.3938C76 12.1286 75.8946 11.8743 75.7071 11.6867C75.5196 11.4992 75.2652 11.3938 75 11.3938C74.7348 11.3938 74.4804 11.4992 74.2929 11.6867C74.1054 11.8743 74 12.1286 74 12.3938ZM81 12.3938C81 12.659 81.1054 12.9134 81.2929 13.1009C81.4804 13.2885 81.7348 13.3938 82 13.3938C82.2652 13.3938 82.5196 13.2885 82.7071 13.1009C82.8946 12.9134 83 12.659 83 12.3938C83 12.1286 82.8946 11.8743 82.7071 11.6867C82.5196 11.4992 82.2652 11.3938 82 11.3938C81.7348 11.3938 81.4804 11.4992 81.2929 11.6867C81.1054 11.8743 81 12.1286 81 12.3938Z" stroke="black" stroke-opacity="0.2" stroke-width="2" stroke-linecap="round" stroke-linejoin="round"/>
</svg>
