<svg width="149" height="149" viewBox="0 0 149 149" fill="none" xmlns="http://www.w3.org/2000/svg">
<circle cx="74.5" cy="74.5" r="69.5" fill="white"/>
<circle cx="74.5" cy="74.5" r="71.6719" stroke="black" stroke-opacity="0.11" stroke-width="4.34375"/>
<g opacity="0.7">
<path d="M113.051 119.75V107.468C113.051 100.953 111.02 94.7057 107.405 90.0992C103.79 85.4927 98.8875 82.9047 93.7754 82.9047H55.2246C50.1125 82.9047 45.2097 85.4927 41.5948 90.0992C37.98 94.7057 35.9492 100.953 35.9492 107.468V119.75" fill="black" fill-opacity="0.24"/>
<path d="M74.7134 71.8136C85.3668 71.8136 94.003 63.1773 94.003 52.524C94.003 41.8706 85.3668 33.2344 74.7134 33.2344C64.0601 33.2344 55.4238 41.8706 55.4238 52.524C55.4238 63.1773 64.0601 71.8136 74.7134 71.8136Z" fill="black" fill-opacity="0.24"/>
</g>
</svg>
