<svg width="838" height="639" viewBox="0 0 838 639" fill="none" xmlns="http://www.w3.org/2000/svg">
<g clip-path="url(#clip0_74_334)">
<g clip-path="url(#clip1_74_334)">
<g filter="url(#filter0_d_74_334)">
<path d="M1163 460.5C1163 714.827 956.827 921 702.5 921C448.173 921 242 714.827 242 460.5C242 206.173 448.173 0 702.5 0C956.827 0 1163 206.173 1163 460.5Z" fill="#F2FFAB"/>
<path d="M921 680.5C921 934.827 714.827 1141 460.5 1141C206.173 1141 0 934.827 0 680.5C0 426.173 206.173 220 460.5 220C714.827 220 921 426.173 921 680.5Z" fill="#8E5D95"/>
<path d="M1162 680.5C1162 934.827 955.827 1141 701.5 1141C447.173 1141 241 934.827 241 680.5C241 426.173 447.173 220 701.5 220C955.827 220 1162 426.173 1162 680.5Z" fill="#011627"/>
</g>
</g>
</g>
<defs>
<filter id="filter0_d_74_334" x="-4" y="0" width="1171" height="1149" filterUnits="userSpaceOnUse" color-interpolation-filters="sRGB">
<feFlood flood-opacity="0" result="BackgroundImageFix"/>
<feColorMatrix in="SourceAlpha" type="matrix" values="0 0 0 0 0 0 0 0 0 0 0 0 0 0 0 0 0 0 127 0" result="hardAlpha"/>
<feOffset dy="4"/>
<feGaussianBlur stdDeviation="2"/>
<feComposite in2="hardAlpha" operator="out"/>
<feColorMatrix type="matrix" values="0 0 0 0 0 0 0 0 0 0 0 0 0 0 0 0 0 0 0.25 0"/>
<feBlend mode="normal" in2="BackgroundImageFix" result="effect1_dropShadow_74_334"/>
<feBlend mode="normal" in="SourceGraphic" in2="effect1_dropShadow_74_334" result="shape"/>
</filter>
<clipPath id="clip0_74_334">
<rect width="838" height="639" fill="white"/>
</clipPath>
<clipPath id="clip1_74_334">
<rect width="838" height="639" fill="white"/>
</clipPath>
</defs>
</svg>
