<svg width="19" height="20" viewBox="0 0 19 20" fill="none" xmlns="http://www.w3.org/2000/svg">
<path d="M7.12516 5.00133L5.82682 3.68717C6.11722 2.94962 6.6229 2.31656 7.27805 1.87037C7.93321 1.42419 8.7075 1.18555 9.50016 1.1855C11.6852 1.1855 13.4585 2.95883 13.4585 5.14383V6.72717H14.2502C14.6701 6.72717 15.0728 6.89398 15.3697 7.19092C15.6667 7.48785 15.8335 7.89057 15.8335 8.3105V13.6938L14.2502 12.1105V8.3105H10.4502L8.86682 6.72717H11.8752V5.14383C11.8752 3.82967 10.8143 2.76883 9.50016 2.76883C8.24141 2.76883 7.21224 3.75842 7.12516 5.00133ZM17.5039 17.383L16.4985 18.3884L15.406 17.2959C15.121 17.6126 14.7093 17.8105 14.2502 17.8105H4.75016C4.33023 17.8105 3.9275 17.6437 3.63057 17.3468C3.33364 17.0498 3.16682 16.6471 3.16682 16.2272V8.3105C3.16682 7.43175 3.87141 6.72717 4.75016 6.72717H4.83724L0.878906 2.76883L1.89224 1.76342L17.5039 17.383ZM14.2502 16.1401L10.9647 12.8547C10.7352 13.4563 10.1652 13.8522 9.50016 13.8522C9.08023 13.8522 8.6775 13.6854 8.38057 13.3884C8.08364 13.0915 7.91682 12.6888 7.91682 12.2688C7.91682 11.5959 8.31266 11.0338 8.91432 10.8043L6.42057 8.3105H4.75016V16.2272H14.2502V16.1401Z" fill="black" fill-opacity="0.12"/>
</svg>
