<svg width="26" height="24" viewBox="0 0 26 24" fill="none" xmlns="http://www.w3.org/2000/svg">
<path fill-rule="evenodd" clip-rule="evenodd" d="M4.60401 8C4.60401 5.23857 7.02913 3 10.0207 3H18.4165C21.408 3 23.8332 5.23858 23.8332 8V16C23.8332 18.7614 21.408 21 18.4165 21H3.24984C2.85172 21 2.48568 20.7984 2.29655 20.475C2.10742 20.1517 2.12569 19.7586 2.34412 19.4513L4.07116 17.0221C4.4188 16.5331 4.60401 15.961 4.60401 15.3761V8ZM10.0207 5C8.22575 5 6.77067 6.34314 6.77067 8V15.3761C6.77067 16.3509 6.46199 17.3044 5.8826 18.1194L5.25655 19H18.4165C20.2114 19 21.6665 17.6569 21.6665 16V8C21.6665 6.34315 20.2114 5 18.4165 5H10.0207Z" fill="black"/>
<path d="M15.1665 12C15.1665 12.5523 14.6815 13 14.0832 13C13.4849 13 12.9998 12.5523 12.9998 12C12.9998 11.4477 13.4849 11 14.0832 11C14.6815 11 15.1665 11.4477 15.1665 12Z" fill="black"/>
<path d="M19.4998 12C19.4998 12.5523 19.0148 13 18.4165 13C17.8182 13 17.3332 12.5523 17.3332 12C17.3332 11.4477 17.8182 11 18.4165 11C19.0148 11 19.4998 11.4477 19.4998 12Z" fill="black"/>
<path d="M10.8332 12C10.8332 12.5523 10.3481 13 9.74984 13C9.15153 13 8.6665 12.5523 8.6665 12C8.6665 11.4477 9.15153 11 9.74984 11C10.3481 11 10.8332 11.4477 10.8332 12Z" fill="black"/>
</svg>
